<svg width="32" height="32" viewBox="0 0 32 32" fill="none" xmlns="http://www.w3.org/2000/svg">
<path fill-rule="evenodd" clip-rule="evenodd" d="M8.83236 8.03487C9.43324 7.97238 10.0382 7.99414 10.63 8.09816C10.8816 7.44197 11.2066 6.81243 11.6011 6.22209C12.6449 4.65982 14.1286 3.44218 15.8645 2.72315C17.6004 2.00412 19.5106 1.81598 21.3534 2.18254C23.1962 2.5491 24.8889 3.45389 26.2175 4.78249C27.5461 6.11109 28.4509 7.80383 28.8175 9.64665C29.184 11.4895 28.9959 13.3996 28.2769 15.1355C27.5578 16.8714 26.3402 18.3551 24.7779 19.399C23.2157 20.4428 21.3789 21 19.5 21H9.49918C8.55541 20.9992 7.62313 20.7929 6.76714 20.3954C5.91115 19.998 5.15198 19.4189 4.5424 18.6984C3.93282 17.9779 3.48744 17.1333 3.23723 16.2233C2.98702 15.3133 2.93798 14.3597 3.09351 13.4288C3.24904 12.498 3.60541 11.6121 4.13786 10.8329C4.67031 10.0537 5.36606 9.39972 6.17676 8.91653C6.98745 8.43334 7.89365 8.13248 8.83236 8.03487Z" fill="white"/>
</svg>
