<svg width="32" height="32" viewBox="0 0 32 32" fill="none" xmlns="http://www.w3.org/2000/svg">
<path fill-rule="evenodd" clip-rule="evenodd" d="M17.4863 19.1639C17.948 19.467 18.0767 20.0869 17.7737 20.5486L13.8362 26.5486C13.5331 27.0104 12.9132 27.1391 12.4515 26.836C11.9897 26.533 11.8611 25.9131 12.1641 25.4513L16.1016 19.4513C16.4046 18.9896 17.0245 18.8609 17.4863 19.1639ZM19.83 24.1641C20.2918 24.4671 20.4204 25.087 20.1174 25.5488L16.8362 30.5488C16.5331 31.0105 15.9132 31.1392 15.4515 30.8362C14.9897 30.5331 14.8611 29.9132 15.1641 29.4515L18.4453 24.4515C18.7483 23.9897 19.3683 23.8611 19.83 24.1641ZM11.7737 22.5488C12.0767 22.087 11.948 21.4671 11.4863 21.1641C11.0245 20.8611 10.4046 20.9897 10.1016 21.4515L6.16407 27.4515C5.86105 27.9132 5.98972 28.5331 6.45146 28.8362C6.91319 29.1392 7.53315 29.0105 7.83616 28.5488L11.7737 22.5488Z" fill="#9CB8FF"/>
<path fill-rule="evenodd" clip-rule="evenodd" d="M8.83236 8.03487C9.43324 7.97238 10.0382 7.99414 10.63 8.09816C10.8816 7.44197 11.2066 6.81243 11.6011 6.22209C12.6449 4.65982 14.1286 3.44218 15.8645 2.72315C17.6004 2.00412 19.5106 1.81598 21.3534 2.18254C23.1962 2.5491 24.8889 3.45389 26.2175 4.78249C27.5461 6.11109 28.4509 7.80383 28.8175 9.64665C29.184 11.4895 28.9959 13.3996 28.2769 15.1355C27.5578 16.8714 26.3402 18.3551 24.7779 19.399C23.2157 20.4428 21.3789 21 19.5 21H9.49918C8.55541 20.9992 7.62313 20.7929 6.76714 20.3954C5.91115 19.998 5.15198 19.4189 4.5424 18.6984C3.93282 17.9779 3.48744 17.1333 3.23723 16.2233C2.98702 15.3133 2.93798 14.3597 3.09351 13.4288C3.24904 12.498 3.60541 11.6121 4.13786 10.8329C4.67031 10.0537 5.36606 9.39972 6.17676 8.91653C6.98745 8.43334 7.89365 8.13248 8.83236 8.03487Z" fill="white"/>
</svg>
